<mxfile host="app.diagrams.net" modified="2023-02-28T14:39:23.436Z" agent="5.0 (Windows NT 10.0; Win64; x64) AppleWebKit/537.36 (KHTML, like Gecko) Chrome/110.0.0.0 Safari/537.36" etag="TXU3IgLhcNp1iorxrnby" version="20.8.23" type="github">
  <diagram name="PÃ¡gina-1" id="4mrONQsCcR9hquS0WGVj">
    <mxGraphModel dx="2261" dy="1925" grid="1" gridSize="10" guides="1" tooltips="1" connect="1" arrows="1" fold="1" page="1" pageScale="1" pageWidth="827" pageHeight="1169" math="0" shadow="0">
      <root>
        <mxCell id="0" />
        <mxCell id="1" parent="0" />
        <mxCell id="QTGlHq5i6ZovdwPENI3X-23" style="edgeStyle=orthogonalEdgeStyle;rounded=0;orthogonalLoop=1;jettySize=auto;html=1;" parent="1" source="QTGlHq5i6ZovdwPENI3X-11" edge="1">
          <mxGeometry relative="1" as="geometry">
            <mxPoint x="373.99999999999955" y="160" as="targetPoint" />
            <Array as="points">
              <mxPoint x="120" y="110" />
              <mxPoint x="374" y="110" />
            </Array>
          </mxGeometry>
        </mxCell>
        <mxCell id="QTGlHq5i6ZovdwPENI3X-11" value="" style="ellipse;whiteSpace=wrap;html=1;aspect=fixed;" parent="1" vertex="1">
          <mxGeometry x="80" width="80" height="80" as="geometry" />
        </mxCell>
        <mxCell id="QTGlHq5i6ZovdwPENI3X-12" value="Actor" style="shape=umlActor;verticalLabelPosition=bottom;verticalAlign=top;html=1;outlineConnect=0;" parent="1" vertex="1">
          <mxGeometry x="105" y="-60" width="30" height="60" as="geometry" />
        </mxCell>
        <mxCell id="QTGlHq5i6ZovdwPENI3X-24" style="edgeStyle=orthogonalEdgeStyle;rounded=0;orthogonalLoop=1;jettySize=auto;html=1;entryX=0.5;entryY=0;entryDx=0;entryDy=0;" parent="1" source="QTGlHq5i6ZovdwPENI3X-13" edge="1">
          <mxGeometry relative="1" as="geometry">
            <mxPoint x="374" y="160" as="targetPoint" />
            <Array as="points">
              <mxPoint x="250" y="100" />
              <mxPoint x="360" y="100" />
              <mxPoint x="360" y="160" />
            </Array>
          </mxGeometry>
        </mxCell>
        <mxCell id="QTGlHq5i6ZovdwPENI3X-13" value="" style="ellipse;whiteSpace=wrap;html=1;aspect=fixed;" parent="1" vertex="1">
          <mxGeometry x="210" width="80" height="80" as="geometry" />
        </mxCell>
        <mxCell id="QTGlHq5i6ZovdwPENI3X-14" value="Actor" style="shape=umlActor;verticalLabelPosition=bottom;verticalAlign=top;html=1;outlineConnect=0;" parent="1" vertex="1">
          <mxGeometry x="235" y="-60" width="30" height="60" as="geometry" />
        </mxCell>
        <mxCell id="QTGlHq5i6ZovdwPENI3X-26" style="edgeStyle=orthogonalEdgeStyle;rounded=0;orthogonalLoop=1;jettySize=auto;html=1;entryX=0.5;entryY=0;entryDx=0;entryDy=0;" parent="1" source="QTGlHq5i6ZovdwPENI3X-15" edge="1">
          <mxGeometry relative="1" as="geometry">
            <mxPoint x="374" y="160" as="targetPoint" />
            <Array as="points">
              <mxPoint x="390" y="160" />
            </Array>
          </mxGeometry>
        </mxCell>
        <mxCell id="QTGlHq5i6ZovdwPENI3X-15" value="" style="ellipse;whiteSpace=wrap;html=1;aspect=fixed;" parent="1" vertex="1">
          <mxGeometry x="334" width="80" height="80" as="geometry" />
        </mxCell>
        <mxCell id="QTGlHq5i6ZovdwPENI3X-16" value="Actor" style="shape=umlActor;verticalLabelPosition=bottom;verticalAlign=top;html=1;outlineConnect=0;" parent="1" vertex="1">
          <mxGeometry x="359" y="-60" width="30" height="60" as="geometry" />
        </mxCell>
        <mxCell id="QTGlHq5i6ZovdwPENI3X-25" style="edgeStyle=orthogonalEdgeStyle;rounded=0;orthogonalLoop=1;jettySize=auto;html=1;entryX=0.5;entryY=0;entryDx=0;entryDy=0;" parent="1" source="QTGlHq5i6ZovdwPENI3X-17" edge="1">
          <mxGeometry relative="1" as="geometry">
            <mxPoint x="374" y="160" as="targetPoint" />
            <Array as="points">
              <mxPoint x="490" y="110" />
              <mxPoint x="330" y="110" />
              <mxPoint x="330" y="160" />
            </Array>
          </mxGeometry>
        </mxCell>
        <mxCell id="QTGlHq5i6ZovdwPENI3X-17" value="" style="ellipse;whiteSpace=wrap;html=1;aspect=fixed;" parent="1" vertex="1">
          <mxGeometry x="450" width="80" height="80" as="geometry" />
        </mxCell>
        <mxCell id="QTGlHq5i6ZovdwPENI3X-18" value="Actor" style="shape=umlActor;verticalLabelPosition=bottom;verticalAlign=top;html=1;outlineConnect=0;" parent="1" vertex="1">
          <mxGeometry x="475" y="-60" width="30" height="60" as="geometry" />
        </mxCell>
        <mxCell id="QTGlHq5i6ZovdwPENI3X-27" style="edgeStyle=orthogonalEdgeStyle;rounded=0;orthogonalLoop=1;jettySize=auto;html=1;" parent="1" source="QTGlHq5i6ZovdwPENI3X-19" edge="1">
          <mxGeometry relative="1" as="geometry">
            <mxPoint x="373.99999999999955" y="160" as="targetPoint" />
            <Array as="points">
              <mxPoint x="600" y="100" />
              <mxPoint x="350" y="100" />
              <mxPoint x="350" y="160" />
            </Array>
          </mxGeometry>
        </mxCell>
        <mxCell id="QTGlHq5i6ZovdwPENI3X-19" value="" style="ellipse;whiteSpace=wrap;html=1;aspect=fixed;" parent="1" vertex="1">
          <mxGeometry x="560" width="80" height="80" as="geometry" />
        </mxCell>
        <mxCell id="QTGlHq5i6ZovdwPENI3X-20" value="Actor" style="shape=umlActor;verticalLabelPosition=bottom;verticalAlign=top;html=1;outlineConnect=0;" parent="1" vertex="1">
          <mxGeometry x="585" y="-60" width="30" height="60" as="geometry" />
        </mxCell>
        <mxCell id="QTGlHq5i6ZovdwPENI3X-28" style="edgeStyle=orthogonalEdgeStyle;rounded=0;orthogonalLoop=1;jettySize=auto;html=1;entryX=0.5;entryY=0;entryDx=0;entryDy=0;" parent="1" source="QTGlHq5i6ZovdwPENI3X-21" edge="1">
          <mxGeometry relative="1" as="geometry">
            <mxPoint x="374" y="160" as="targetPoint" />
            <Array as="points">
              <mxPoint x="720" y="120" />
              <mxPoint x="400" y="120" />
              <mxPoint x="400" y="160" />
            </Array>
          </mxGeometry>
        </mxCell>
        <mxCell id="QTGlHq5i6ZovdwPENI3X-21" value="" style="ellipse;whiteSpace=wrap;html=1;aspect=fixed;" parent="1" vertex="1">
          <mxGeometry x="680" width="80" height="80" as="geometry" />
        </mxCell>
        <mxCell id="QTGlHq5i6ZovdwPENI3X-22" value="Actor" style="shape=umlActor;verticalLabelPosition=bottom;verticalAlign=top;html=1;outlineConnect=0;" parent="1" vertex="1">
          <mxGeometry x="705" y="-60" width="30" height="60" as="geometry" />
        </mxCell>
        <mxCell id="a-tByQr6x83hH4t-cleU-102" style="edgeStyle=orthogonalEdgeStyle;rounded=0;orthogonalLoop=1;jettySize=auto;html=1;exitX=0.25;exitY=1;exitDx=0;exitDy=0;" parent="1" source="QTGlHq5i6ZovdwPENI3X-29" target="a-tByQr6x83hH4t-cleU-97" edge="1">
          <mxGeometry relative="1" as="geometry" />
        </mxCell>
        <mxCell id="a-tByQr6x83hH4t-cleU-103" style="edgeStyle=orthogonalEdgeStyle;rounded=0;orthogonalLoop=1;jettySize=auto;html=1;exitX=0.5;exitY=1;exitDx=0;exitDy=0;entryX=0.5;entryY=0;entryDx=0;entryDy=0;" parent="1" source="QTGlHq5i6ZovdwPENI3X-29" target="a-tByQr6x83hH4t-cleU-98" edge="1">
          <mxGeometry relative="1" as="geometry" />
        </mxCell>
        <mxCell id="a-tByQr6x83hH4t-cleU-104" style="edgeStyle=orthogonalEdgeStyle;rounded=0;orthogonalLoop=1;jettySize=auto;html=1;exitX=0.75;exitY=1;exitDx=0;exitDy=0;entryX=0.25;entryY=0;entryDx=0;entryDy=0;" parent="1" source="QTGlHq5i6ZovdwPENI3X-29" target="a-tByQr6x83hH4t-cleU-99" edge="1">
          <mxGeometry relative="1" as="geometry" />
        </mxCell>
        <mxCell id="a-tByQr6x83hH4t-cleU-105" style="edgeStyle=orthogonalEdgeStyle;rounded=0;orthogonalLoop=1;jettySize=auto;html=1;exitX=1;exitY=1;exitDx=0;exitDy=0;entryX=0.5;entryY=0;entryDx=0;entryDy=0;" parent="1" source="QTGlHq5i6ZovdwPENI3X-29" target="a-tByQr6x83hH4t-cleU-100" edge="1">
          <mxGeometry relative="1" as="geometry" />
        </mxCell>
        <mxCell id="QTGlHq5i6ZovdwPENI3X-29" value="INGRESS CONTROLLER" style="shape=process;whiteSpace=wrap;html=1;backgroundOutline=1;" parent="1" vertex="1">
          <mxGeometry x="314" y="160" width="120" height="60" as="geometry" />
        </mxCell>
        <mxCell id="a-tByQr6x83hH4t-cleU-40" style="edgeStyle=orthogonalEdgeStyle;rounded=0;orthogonalLoop=1;jettySize=auto;html=1;exitX=0;exitY=0;exitDx=0;exitDy=32.5;exitPerimeter=0;" parent="1" source="QTGlHq5i6ZovdwPENI3X-36" target="a-tByQr6x83hH4t-cleU-38" edge="1">
          <mxGeometry relative="1" as="geometry" />
        </mxCell>
        <mxCell id="a-tByQr6x83hH4t-cleU-41" style="edgeStyle=orthogonalEdgeStyle;rounded=0;orthogonalLoop=1;jettySize=auto;html=1;exitX=0;exitY=0.5;exitDx=0;exitDy=0;exitPerimeter=0;entryX=0.5;entryY=1;entryDx=0;entryDy=0;" parent="1" source="QTGlHq5i6ZovdwPENI3X-36" target="a-tByQr6x83hH4t-cleU-26" edge="1">
          <mxGeometry relative="1" as="geometry" />
        </mxCell>
        <mxCell id="a-tByQr6x83hH4t-cleU-42" style="edgeStyle=orthogonalEdgeStyle;rounded=0;orthogonalLoop=1;jettySize=auto;html=1;exitX=0;exitY=0;exitDx=0;exitDy=67.5;exitPerimeter=0;entryX=0;entryY=0.5;entryDx=0;entryDy=0;" parent="1" source="QTGlHq5i6ZovdwPENI3X-36" target="a-tByQr6x83hH4t-cleU-24" edge="1">
          <mxGeometry relative="1" as="geometry" />
        </mxCell>
        <mxCell id="a-tByQr6x83hH4t-cleU-43" style="edgeStyle=orthogonalEdgeStyle;rounded=0;orthogonalLoop=1;jettySize=auto;html=1;exitX=0;exitY=1;exitDx=0;exitDy=-15;exitPerimeter=0;entryX=0;entryY=0.5;entryDx=0;entryDy=0;" parent="1" source="QTGlHq5i6ZovdwPENI3X-36" target="a-tByQr6x83hH4t-cleU-22" edge="1">
          <mxGeometry relative="1" as="geometry">
            <Array as="points">
              <mxPoint x="50" y="1235" />
              <mxPoint x="50" y="842" />
            </Array>
          </mxGeometry>
        </mxCell>
        <mxCell id="a-tByQr6x83hH4t-cleU-44" style="edgeStyle=orthogonalEdgeStyle;rounded=0;orthogonalLoop=1;jettySize=auto;html=1;exitX=0.145;exitY=1;exitDx=0;exitDy=-4.35;exitPerimeter=0;entryX=0;entryY=0.5;entryDx=0;entryDy=0;" parent="1" source="QTGlHq5i6ZovdwPENI3X-36" target="a-tByQr6x83hH4t-cleU-20" edge="1">
          <mxGeometry relative="1" as="geometry">
            <Array as="points">
              <mxPoint x="40" y="1246" />
              <mxPoint x="40" y="800" />
            </Array>
          </mxGeometry>
        </mxCell>
        <mxCell id="a-tByQr6x83hH4t-cleU-45" style="edgeStyle=orthogonalEdgeStyle;rounded=0;orthogonalLoop=1;jettySize=auto;html=1;exitX=0;exitY=0;exitDx=0;exitDy=15;exitPerimeter=0;entryX=1;entryY=0.5;entryDx=0;entryDy=0;" parent="1" source="QTGlHq5i6ZovdwPENI3X-36" target="a-tByQr6x83hH4t-cleU-25" edge="1">
          <mxGeometry relative="1" as="geometry" />
        </mxCell>
        <mxCell id="a-tByQr6x83hH4t-cleU-46" style="edgeStyle=orthogonalEdgeStyle;rounded=0;orthogonalLoop=1;jettySize=auto;html=1;exitX=0.145;exitY=0;exitDx=0;exitDy=4.35;exitPerimeter=0;entryX=1;entryY=0.5;entryDx=0;entryDy=0;" parent="1" source="QTGlHq5i6ZovdwPENI3X-36" target="a-tByQr6x83hH4t-cleU-23" edge="1">
          <mxGeometry relative="1" as="geometry">
            <Array as="points">
              <mxPoint x="380" y="1154" />
              <mxPoint x="380" y="842" />
            </Array>
          </mxGeometry>
        </mxCell>
        <mxCell id="a-tByQr6x83hH4t-cleU-47" style="edgeStyle=orthogonalEdgeStyle;rounded=0;orthogonalLoop=1;jettySize=auto;html=1;exitX=0.5;exitY=0;exitDx=0;exitDy=0;exitPerimeter=0;entryX=1;entryY=0.5;entryDx=0;entryDy=0;" parent="1" source="QTGlHq5i6ZovdwPENI3X-36" target="a-tByQr6x83hH4t-cleU-21" edge="1">
          <mxGeometry relative="1" as="geometry" />
        </mxCell>
        <mxCell id="a-tByQr6x83hH4t-cleU-48" style="edgeStyle=orthogonalEdgeStyle;rounded=0;orthogonalLoop=1;jettySize=auto;html=1;entryX=1;entryY=0.5;entryDx=0;entryDy=0;" parent="1" source="QTGlHq5i6ZovdwPENI3X-36" target="a-tByQr6x83hH4t-cleU-19" edge="1">
          <mxGeometry relative="1" as="geometry" />
        </mxCell>
        <mxCell id="QTGlHq5i6ZovdwPENI3X-36" value="VOLUME PERSISTENTE" style="shape=cylinder3;whiteSpace=wrap;html=1;boundedLbl=1;backgroundOutline=1;size=15;" parent="1" vertex="1">
          <mxGeometry x="650" y="1230" width="130" height="100" as="geometry" />
        </mxCell>
        <mxCell id="a-tByQr6x83hH4t-cleU-17" value="Node 1" style="text;html=1;strokeColor=none;fillColor=none;align=center;verticalAlign=middle;whiteSpace=wrap;rounded=0;" parent="1" vertex="1">
          <mxGeometry x="121.98000000000002" y="500" width="128.01524747364448" height="16.89380837080595" as="geometry" />
        </mxCell>
        <mxCell id="a-tByQr6x83hH4t-cleU-49" style="edgeStyle=orthogonalEdgeStyle;rounded=0;orthogonalLoop=1;jettySize=auto;html=1;exitX=0.25;exitY=1;exitDx=0;exitDy=0;entryX=0.25;entryY=0;entryDx=0;entryDy=0;" parent="1" source="a-tByQr6x83hH4t-cleU-18" target="a-tByQr6x83hH4t-cleU-20" edge="1">
          <mxGeometry relative="1" as="geometry" />
        </mxCell>
        <mxCell id="a-tByQr6x83hH4t-cleU-50" style="edgeStyle=orthogonalEdgeStyle;rounded=0;orthogonalLoop=1;jettySize=auto;html=1;exitX=0.75;exitY=1;exitDx=0;exitDy=0;entryX=0;entryY=0.5;entryDx=0;entryDy=0;" parent="1" source="a-tByQr6x83hH4t-cleU-18" target="a-tByQr6x83hH4t-cleU-19" edge="1">
          <mxGeometry relative="1" as="geometry" />
        </mxCell>
        <mxCell id="a-tByQr6x83hH4t-cleU-51" style="edgeStyle=orthogonalEdgeStyle;rounded=0;orthogonalLoop=1;jettySize=auto;html=1;exitX=1;exitY=0.5;exitDx=0;exitDy=0;entryX=0;entryY=0.5;entryDx=0;entryDy=0;" parent="1" source="a-tByQr6x83hH4t-cleU-18" target="a-tByQr6x83hH4t-cleU-21" edge="1">
          <mxGeometry relative="1" as="geometry" />
        </mxCell>
        <mxCell id="a-tByQr6x83hH4t-cleU-52" style="edgeStyle=orthogonalEdgeStyle;rounded=0;orthogonalLoop=1;jettySize=auto;html=1;exitX=0.75;exitY=1;exitDx=0;exitDy=0;entryX=1;entryY=0.5;entryDx=0;entryDy=0;" parent="1" source="a-tByQr6x83hH4t-cleU-18" target="a-tByQr6x83hH4t-cleU-22" edge="1">
          <mxGeometry relative="1" as="geometry" />
        </mxCell>
        <mxCell id="a-tByQr6x83hH4t-cleU-53" style="edgeStyle=orthogonalEdgeStyle;rounded=0;orthogonalLoop=1;jettySize=auto;html=1;exitX=0.5;exitY=1;exitDx=0;exitDy=0;entryX=1;entryY=0.5;entryDx=0;entryDy=0;" parent="1" source="a-tByQr6x83hH4t-cleU-18" target="a-tByQr6x83hH4t-cleU-24" edge="1">
          <mxGeometry relative="1" as="geometry" />
        </mxCell>
        <mxCell id="a-tByQr6x83hH4t-cleU-54" style="edgeStyle=orthogonalEdgeStyle;rounded=0;orthogonalLoop=1;jettySize=auto;html=1;exitX=1;exitY=1;exitDx=0;exitDy=0;entryX=1;entryY=0.5;entryDx=0;entryDy=0;" parent="1" source="a-tByQr6x83hH4t-cleU-18" target="a-tByQr6x83hH4t-cleU-26" edge="1">
          <mxGeometry relative="1" as="geometry" />
        </mxCell>
        <mxCell id="a-tByQr6x83hH4t-cleU-58" style="edgeStyle=orthogonalEdgeStyle;rounded=0;orthogonalLoop=1;jettySize=auto;html=1;exitX=1;exitY=0.25;exitDx=0;exitDy=0;" parent="1" source="a-tByQr6x83hH4t-cleU-18" target="a-tByQr6x83hH4t-cleU-19" edge="1">
          <mxGeometry relative="1" as="geometry" />
        </mxCell>
        <mxCell id="a-tByQr6x83hH4t-cleU-59" style="edgeStyle=orthogonalEdgeStyle;rounded=0;orthogonalLoop=1;jettySize=auto;html=1;exitX=0.75;exitY=1;exitDx=0;exitDy=0;entryX=0;entryY=0.5;entryDx=0;entryDy=0;" parent="1" source="a-tByQr6x83hH4t-cleU-18" target="a-tByQr6x83hH4t-cleU-23" edge="1">
          <mxGeometry relative="1" as="geometry" />
        </mxCell>
        <mxCell id="a-tByQr6x83hH4t-cleU-60" style="edgeStyle=orthogonalEdgeStyle;rounded=0;orthogonalLoop=1;jettySize=auto;html=1;exitX=1;exitY=1;exitDx=0;exitDy=0;entryX=0;entryY=0.5;entryDx=0;entryDy=0;" parent="1" source="a-tByQr6x83hH4t-cleU-18" target="a-tByQr6x83hH4t-cleU-25" edge="1">
          <mxGeometry relative="1" as="geometry" />
        </mxCell>
        <mxCell id="a-tByQr6x83hH4t-cleU-61" style="edgeStyle=orthogonalEdgeStyle;rounded=0;orthogonalLoop=1;jettySize=auto;html=1;exitX=0.75;exitY=1;exitDx=0;exitDy=0;entryX=0;entryY=0.5;entryDx=0;entryDy=0;" parent="1" source="a-tByQr6x83hH4t-cleU-18" target="a-tByQr6x83hH4t-cleU-38" edge="1">
          <mxGeometry relative="1" as="geometry" />
        </mxCell>
        <mxCell id="a-tByQr6x83hH4t-cleU-18" value="ARGOCD" style="rounded=1;whiteSpace=wrap;html=1;rotation=0;" parent="1" vertex="1">
          <mxGeometry x="228.01770295221263" y="590.0038083708059" width="118.16792074490259" height="33.7876167416119" as="geometry" />
        </mxCell>
        <mxCell id="a-tByQr6x83hH4t-cleU-19" value="POSTGRESQL" style="rounded=1;whiteSpace=wrap;html=1;rotation=0;" parent="1" vertex="1">
          <mxGeometry x="249.99760388334093" y="688.443808370806" width="118.16792074490259" height="33.7876167416119" as="geometry" />
        </mxCell>
        <mxCell id="a-tByQr6x83hH4t-cleU-20" value="PROMETHEUS" style="rounded=1;whiteSpace=wrap;html=1;rotation=0;" parent="1" vertex="1">
          <mxGeometry x="-100.00229704778735" y="804.4783292978209" width="118.16792074490259" height="33.7876167416119" as="geometry" />
        </mxCell>
        <mxCell id="a-tByQr6x83hH4t-cleU-21" value="GRAFANA" style="rounded=1;whiteSpace=wrap;html=1;rotation=0;" parent="1" vertex="1">
          <mxGeometry x="228.0176038833409" y="782.918329297821" width="118.16792074490259" height="33.7876167416119" as="geometry" />
        </mxCell>
        <mxCell id="a-tByQr6x83hH4t-cleU-22" value="REDIS" style="rounded=1;whiteSpace=wrap;html=1;rotation=0;" parent="1" vertex="1">
          <mxGeometry x="-130.00229704778735" y="949.0428502248357" width="118.16792074490259" height="33.7876167416119" as="geometry" />
        </mxCell>
        <mxCell id="a-tByQr6x83hH4t-cleU-23" value="OPEN EBS" style="rounded=1;whiteSpace=wrap;html=1;rotation=0;" parent="1" vertex="1">
          <mxGeometry x="386.8276038833409" y="816.7028502248356" width="118.16792074490259" height="33.7876167416119" as="geometry" />
        </mxCell>
        <mxCell id="a-tByQr6x83hH4t-cleU-24" value="PATIENT CARE - API" style="rounded=1;whiteSpace=wrap;html=1;rotation=0;" parent="1" vertex="1">
          <mxGeometry x="-60.00229704778735" y="1060.0030058803181" width="118.16792074490259" height="33.7876167416119" as="geometry" />
        </mxCell>
        <mxCell id="a-tByQr6x83hH4t-cleU-25" value="PATIENT CARE - CLIENT" style="rounded=1;whiteSpace=wrap;html=1;rotation=0;" parent="1" vertex="1">
          <mxGeometry x="226.8276038833409" y="894.5730058803182" width="118.16792074490259" height="33.7876167416119" as="geometry" />
        </mxCell>
        <mxCell id="a-tByQr6x83hH4t-cleU-26" value="PATIENT CARE - SERVICES" style="rounded=1;whiteSpace=wrap;html=1;rotation=0;" parent="1" vertex="1">
          <mxGeometry x="16.82770295221266" y="1130.0031615358007" width="118.16792074490259" height="33.7876167416119" as="geometry" />
        </mxCell>
        <mxCell id="a-tByQr6x83hH4t-cleU-28" value="Node 2" style="text;html=1;strokeColor=none;fillColor=none;align=center;verticalAlign=middle;whiteSpace=wrap;rounded=0;" parent="1" vertex="1">
          <mxGeometry x="958.17" y="500" width="128.01524747364448" height="16.89380837080595" as="geometry" />
        </mxCell>
        <mxCell id="a-tByQr6x83hH4t-cleU-38" value="PATIENT CARE - PRESCRICAO SERVICE" style="rounded=1;whiteSpace=wrap;html=1;rotation=0;" parent="1" vertex="1">
          <mxGeometry x="425" y="962.15" width="130" height="53.79" as="geometry" />
        </mxCell>
        <mxCell id="a-tByQr6x83hH4t-cleU-63" style="edgeStyle=orthogonalEdgeStyle;rounded=0;orthogonalLoop=1;jettySize=auto;html=1;exitX=0;exitY=0;exitDx=0;exitDy=32.5;exitPerimeter=0;" parent="1" source="a-tByQr6x83hH4t-cleU-72" target="a-tByQr6x83hH4t-cleU-92" edge="1">
          <mxGeometry relative="1" as="geometry" />
        </mxCell>
        <mxCell id="a-tByQr6x83hH4t-cleU-64" style="edgeStyle=orthogonalEdgeStyle;rounded=0;orthogonalLoop=1;jettySize=auto;html=1;exitX=0;exitY=0.5;exitDx=0;exitDy=0;exitPerimeter=0;entryX=0.5;entryY=1;entryDx=0;entryDy=0;" parent="1" source="a-tByQr6x83hH4t-cleU-72" target="a-tByQr6x83hH4t-cleU-91" edge="1">
          <mxGeometry relative="1" as="geometry" />
        </mxCell>
        <mxCell id="a-tByQr6x83hH4t-cleU-65" style="edgeStyle=orthogonalEdgeStyle;rounded=0;orthogonalLoop=1;jettySize=auto;html=1;exitX=0;exitY=0;exitDx=0;exitDy=67.5;exitPerimeter=0;entryX=0;entryY=0.5;entryDx=0;entryDy=0;" parent="1" source="a-tByQr6x83hH4t-cleU-72" target="a-tByQr6x83hH4t-cleU-89" edge="1">
          <mxGeometry relative="1" as="geometry" />
        </mxCell>
        <mxCell id="a-tByQr6x83hH4t-cleU-66" style="edgeStyle=orthogonalEdgeStyle;rounded=0;orthogonalLoop=1;jettySize=auto;html=1;exitX=0;exitY=1;exitDx=0;exitDy=-15;exitPerimeter=0;entryX=0;entryY=0.5;entryDx=0;entryDy=0;" parent="1" source="a-tByQr6x83hH4t-cleU-72" target="a-tByQr6x83hH4t-cleU-87" edge="1">
          <mxGeometry relative="1" as="geometry">
            <Array as="points">
              <mxPoint x="1020" y="1215" />
              <mxPoint x="1020" y="822" />
            </Array>
          </mxGeometry>
        </mxCell>
        <mxCell id="a-tByQr6x83hH4t-cleU-67" style="edgeStyle=orthogonalEdgeStyle;rounded=0;orthogonalLoop=1;jettySize=auto;html=1;exitX=0.145;exitY=1;exitDx=0;exitDy=-4.35;exitPerimeter=0;entryX=0;entryY=0.5;entryDx=0;entryDy=0;" parent="1" source="a-tByQr6x83hH4t-cleU-72" target="a-tByQr6x83hH4t-cleU-85" edge="1">
          <mxGeometry relative="1" as="geometry">
            <Array as="points">
              <mxPoint x="1010" y="1226" />
              <mxPoint x="1010" y="780" />
            </Array>
          </mxGeometry>
        </mxCell>
        <mxCell id="a-tByQr6x83hH4t-cleU-68" style="edgeStyle=orthogonalEdgeStyle;rounded=0;orthogonalLoop=1;jettySize=auto;html=1;exitX=0;exitY=0;exitDx=0;exitDy=15;exitPerimeter=0;entryX=1;entryY=0.5;entryDx=0;entryDy=0;" parent="1" source="a-tByQr6x83hH4t-cleU-72" target="a-tByQr6x83hH4t-cleU-90" edge="1">
          <mxGeometry relative="1" as="geometry" />
        </mxCell>
        <mxCell id="a-tByQr6x83hH4t-cleU-69" style="edgeStyle=orthogonalEdgeStyle;rounded=0;orthogonalLoop=1;jettySize=auto;html=1;exitX=0.145;exitY=0;exitDx=0;exitDy=4.35;exitPerimeter=0;entryX=1;entryY=0.5;entryDx=0;entryDy=0;" parent="1" source="a-tByQr6x83hH4t-cleU-72" target="a-tByQr6x83hH4t-cleU-88" edge="1">
          <mxGeometry relative="1" as="geometry">
            <Array as="points">
              <mxPoint x="1350" y="1134" />
              <mxPoint x="1350" y="822" />
            </Array>
          </mxGeometry>
        </mxCell>
        <mxCell id="a-tByQr6x83hH4t-cleU-70" style="edgeStyle=orthogonalEdgeStyle;rounded=0;orthogonalLoop=1;jettySize=auto;html=1;exitX=0.5;exitY=0;exitDx=0;exitDy=0;exitPerimeter=0;entryX=1;entryY=0.5;entryDx=0;entryDy=0;" parent="1" source="a-tByQr6x83hH4t-cleU-72" target="a-tByQr6x83hH4t-cleU-86" edge="1">
          <mxGeometry relative="1" as="geometry" />
        </mxCell>
        <mxCell id="a-tByQr6x83hH4t-cleU-71" style="edgeStyle=orthogonalEdgeStyle;rounded=0;orthogonalLoop=1;jettySize=auto;html=1;entryX=1;entryY=0.5;entryDx=0;entryDy=0;" parent="1" source="a-tByQr6x83hH4t-cleU-72" target="a-tByQr6x83hH4t-cleU-84" edge="1">
          <mxGeometry relative="1" as="geometry" />
        </mxCell>
        <mxCell id="a-tByQr6x83hH4t-cleU-72" value="VOLUME PERSISTENTE" style="shape=cylinder3;whiteSpace=wrap;html=1;boundedLbl=1;backgroundOutline=1;size=15;" parent="1" vertex="1">
          <mxGeometry x="650" y="1230" width="130" height="100" as="geometry" />
        </mxCell>
        <mxCell id="a-tByQr6x83hH4t-cleU-73" style="edgeStyle=orthogonalEdgeStyle;rounded=0;orthogonalLoop=1;jettySize=auto;html=1;exitX=0.25;exitY=1;exitDx=0;exitDy=0;entryX=0.25;entryY=0;entryDx=0;entryDy=0;" parent="1" source="a-tByQr6x83hH4t-cleU-83" target="a-tByQr6x83hH4t-cleU-85" edge="1">
          <mxGeometry relative="1" as="geometry" />
        </mxCell>
        <mxCell id="a-tByQr6x83hH4t-cleU-74" style="edgeStyle=orthogonalEdgeStyle;rounded=0;orthogonalLoop=1;jettySize=auto;html=1;exitX=0.75;exitY=1;exitDx=0;exitDy=0;entryX=0;entryY=0.5;entryDx=0;entryDy=0;" parent="1" source="a-tByQr6x83hH4t-cleU-83" target="a-tByQr6x83hH4t-cleU-84" edge="1">
          <mxGeometry relative="1" as="geometry" />
        </mxCell>
        <mxCell id="a-tByQr6x83hH4t-cleU-75" style="edgeStyle=orthogonalEdgeStyle;rounded=0;orthogonalLoop=1;jettySize=auto;html=1;exitX=1;exitY=0.5;exitDx=0;exitDy=0;entryX=0;entryY=0.5;entryDx=0;entryDy=0;" parent="1" source="a-tByQr6x83hH4t-cleU-83" target="a-tByQr6x83hH4t-cleU-86" edge="1">
          <mxGeometry relative="1" as="geometry" />
        </mxCell>
        <mxCell id="a-tByQr6x83hH4t-cleU-76" style="edgeStyle=orthogonalEdgeStyle;rounded=0;orthogonalLoop=1;jettySize=auto;html=1;exitX=0.75;exitY=1;exitDx=0;exitDy=0;entryX=1;entryY=0.5;entryDx=0;entryDy=0;" parent="1" source="a-tByQr6x83hH4t-cleU-83" target="a-tByQr6x83hH4t-cleU-87" edge="1">
          <mxGeometry relative="1" as="geometry" />
        </mxCell>
        <mxCell id="a-tByQr6x83hH4t-cleU-77" style="edgeStyle=orthogonalEdgeStyle;rounded=0;orthogonalLoop=1;jettySize=auto;html=1;exitX=0.5;exitY=1;exitDx=0;exitDy=0;entryX=1;entryY=0.5;entryDx=0;entryDy=0;" parent="1" source="a-tByQr6x83hH4t-cleU-83" target="a-tByQr6x83hH4t-cleU-89" edge="1">
          <mxGeometry relative="1" as="geometry" />
        </mxCell>
        <mxCell id="a-tByQr6x83hH4t-cleU-78" style="edgeStyle=orthogonalEdgeStyle;rounded=0;orthogonalLoop=1;jettySize=auto;html=1;exitX=1;exitY=1;exitDx=0;exitDy=0;entryX=1;entryY=0.5;entryDx=0;entryDy=0;" parent="1" source="a-tByQr6x83hH4t-cleU-83" target="a-tByQr6x83hH4t-cleU-91" edge="1">
          <mxGeometry relative="1" as="geometry" />
        </mxCell>
        <mxCell id="a-tByQr6x83hH4t-cleU-79" style="edgeStyle=orthogonalEdgeStyle;rounded=0;orthogonalLoop=1;jettySize=auto;html=1;exitX=1;exitY=0.25;exitDx=0;exitDy=0;" parent="1" source="a-tByQr6x83hH4t-cleU-83" target="a-tByQr6x83hH4t-cleU-84" edge="1">
          <mxGeometry relative="1" as="geometry" />
        </mxCell>
        <mxCell id="a-tByQr6x83hH4t-cleU-80" style="edgeStyle=orthogonalEdgeStyle;rounded=0;orthogonalLoop=1;jettySize=auto;html=1;exitX=0.75;exitY=1;exitDx=0;exitDy=0;entryX=0;entryY=0.5;entryDx=0;entryDy=0;" parent="1" source="a-tByQr6x83hH4t-cleU-83" target="a-tByQr6x83hH4t-cleU-88" edge="1">
          <mxGeometry relative="1" as="geometry" />
        </mxCell>
        <mxCell id="a-tByQr6x83hH4t-cleU-81" style="edgeStyle=orthogonalEdgeStyle;rounded=0;orthogonalLoop=1;jettySize=auto;html=1;exitX=1;exitY=1;exitDx=0;exitDy=0;entryX=0;entryY=0.5;entryDx=0;entryDy=0;" parent="1" source="a-tByQr6x83hH4t-cleU-83" target="a-tByQr6x83hH4t-cleU-90" edge="1">
          <mxGeometry relative="1" as="geometry" />
        </mxCell>
        <mxCell id="a-tByQr6x83hH4t-cleU-82" style="edgeStyle=orthogonalEdgeStyle;rounded=0;orthogonalLoop=1;jettySize=auto;html=1;exitX=0.75;exitY=1;exitDx=0;exitDy=0;entryX=0;entryY=0.5;entryDx=0;entryDy=0;" parent="1" source="a-tByQr6x83hH4t-cleU-83" target="a-tByQr6x83hH4t-cleU-92" edge="1">
          <mxGeometry relative="1" as="geometry" />
        </mxCell>
        <mxCell id="a-tByQr6x83hH4t-cleU-83" value="ARGOCD" style="rounded=1;whiteSpace=wrap;html=1;rotation=0;" parent="1" vertex="1">
          <mxGeometry x="1219.9977029522129" y="556.213808370806" width="118.16792074490259" height="33.7876167416119" as="geometry" />
        </mxCell>
        <mxCell id="a-tByQr6x83hH4t-cleU-84" value="POSTGRESQL" style="rounded=1;whiteSpace=wrap;html=1;rotation=0;" parent="1" vertex="1">
          <mxGeometry x="958.1676038833411" y="630.0038083708059" width="118.16792074490259" height="33.7876167416119" as="geometry" />
        </mxCell>
        <mxCell id="a-tByQr6x83hH4t-cleU-85" value="PROMETHEUS" style="rounded=1;whiteSpace=wrap;html=1;rotation=0;" parent="1" vertex="1">
          <mxGeometry x="869.9977029522126" y="784.4783292978209" width="118.16792074490259" height="33.7876167416119" as="geometry" />
        </mxCell>
        <mxCell id="a-tByQr6x83hH4t-cleU-86" value="GRAFANA" style="rounded=1;whiteSpace=wrap;html=1;rotation=0;" parent="1" vertex="1">
          <mxGeometry x="1121.9976038833408" y="784.4783292978209" width="118.16792074490259" height="33.7876167416119" as="geometry" />
        </mxCell>
        <mxCell id="a-tByQr6x83hH4t-cleU-87" value="REDIS" style="rounded=1;whiteSpace=wrap;html=1;rotation=0;" parent="1" vertex="1">
          <mxGeometry x="839.9977029522126" y="929.0428502248357" width="118.16792074490259" height="33.7876167416119" as="geometry" />
        </mxCell>
        <mxCell id="a-tByQr6x83hH4t-cleU-88" value="OPEN EBS" style="rounded=1;whiteSpace=wrap;html=1;rotation=0;" parent="1" vertex="1">
          <mxGeometry x="1459.997603883341" y="972.1528502248357" width="118.16792074490259" height="33.7876167416119" as="geometry" />
        </mxCell>
        <mxCell id="a-tByQr6x83hH4t-cleU-89" value="PATIENT CARE - API" style="rounded=1;whiteSpace=wrap;html=1;rotation=0;" parent="1" vertex="1">
          <mxGeometry x="909.9977029522126" y="1040.0030058803181" width="118.16792074490259" height="33.7876167416119" as="geometry" />
        </mxCell>
        <mxCell id="a-tByQr6x83hH4t-cleU-90" value="PATIENT CARE - CLIENT" style="rounded=1;whiteSpace=wrap;html=1;rotation=0;" parent="1" vertex="1">
          <mxGeometry x="1059.997603883341" y="874.5730058803182" width="118.16792074490259" height="33.7876167416119" as="geometry" />
        </mxCell>
        <mxCell id="a-tByQr6x83hH4t-cleU-91" value="PATIENT CARE - SERVICES" style="rounded=1;whiteSpace=wrap;html=1;rotation=0;" parent="1" vertex="1">
          <mxGeometry x="1169.9977029522126" y="1250.0031615358007" width="118.16792074490259" height="33.7876167416119" as="geometry" />
        </mxCell>
        <mxCell id="a-tByQr6x83hH4t-cleU-92" value="PATIENT CARE - PRESCRICAO SERVICE" style="rounded=1;whiteSpace=wrap;html=1;rotation=0;" parent="1" vertex="1">
          <mxGeometry x="1440" y="1190" width="130" height="53.79" as="geometry" />
        </mxCell>
        <mxCell id="a-tByQr6x83hH4t-cleU-106" style="edgeStyle=orthogonalEdgeStyle;rounded=0;orthogonalLoop=1;jettySize=auto;html=1;exitX=0.25;exitY=1;exitDx=0;exitDy=0;entryX=0.25;entryY=0;entryDx=0;entryDy=0;" parent="1" source="a-tByQr6x83hH4t-cleU-97" target="a-tByQr6x83hH4t-cleU-17" edge="1">
          <mxGeometry relative="1" as="geometry" />
        </mxCell>
        <mxCell id="a-tByQr6x83hH4t-cleU-114" style="edgeStyle=orthogonalEdgeStyle;rounded=0;orthogonalLoop=1;jettySize=auto;html=1;exitX=0.5;exitY=1;exitDx=0;exitDy=0;entryX=0;entryY=0;entryDx=0;entryDy=0;" parent="1" source="a-tByQr6x83hH4t-cleU-97" target="a-tByQr6x83hH4t-cleU-28" edge="1">
          <mxGeometry relative="1" as="geometry" />
        </mxCell>
        <mxCell id="a-tByQr6x83hH4t-cleU-97" value="SVC" style="rounded=1;whiteSpace=wrap;html=1;rotation=0;" parent="1" vertex="1">
          <mxGeometry x="195.82770295221263" y="381.55380837080594" width="118.16792074490259" height="33.7876167416119" as="geometry" />
        </mxCell>
        <mxCell id="a-tByQr6x83hH4t-cleU-108" style="edgeStyle=orthogonalEdgeStyle;rounded=0;orthogonalLoop=1;jettySize=auto;html=1;exitX=0.25;exitY=1;exitDx=0;exitDy=0;" parent="1" source="a-tByQr6x83hH4t-cleU-98" target="a-tByQr6x83hH4t-cleU-17" edge="1">
          <mxGeometry relative="1" as="geometry" />
        </mxCell>
        <mxCell id="a-tByQr6x83hH4t-cleU-111" style="edgeStyle=orthogonalEdgeStyle;rounded=0;orthogonalLoop=1;jettySize=auto;html=1;exitX=0.5;exitY=1;exitDx=0;exitDy=0;entryX=0.25;entryY=0;entryDx=0;entryDy=0;" parent="1" source="a-tByQr6x83hH4t-cleU-98" target="a-tByQr6x83hH4t-cleU-28" edge="1">
          <mxGeometry relative="1" as="geometry" />
        </mxCell>
        <mxCell id="a-tByQr6x83hH4t-cleU-98" value="SVC" style="rounded=1;whiteSpace=wrap;html=1;rotation=0;" parent="1" vertex="1">
          <mxGeometry x="379.99770295221265" y="381.55380837080594" width="118.16792074490259" height="33.7876167416119" as="geometry" />
        </mxCell>
        <mxCell id="a-tByQr6x83hH4t-cleU-109" style="edgeStyle=orthogonalEdgeStyle;rounded=0;orthogonalLoop=1;jettySize=auto;html=1;exitX=0.25;exitY=1;exitDx=0;exitDy=0;" parent="1" source="a-tByQr6x83hH4t-cleU-99" edge="1">
          <mxGeometry relative="1" as="geometry">
            <mxPoint x="200.00000000000045" y="490" as="targetPoint" />
          </mxGeometry>
        </mxCell>
        <mxCell id="a-tByQr6x83hH4t-cleU-112" style="edgeStyle=orthogonalEdgeStyle;rounded=0;orthogonalLoop=1;jettySize=auto;html=1;exitX=0.5;exitY=1;exitDx=0;exitDy=0;entryX=0.5;entryY=0;entryDx=0;entryDy=0;" parent="1" source="a-tByQr6x83hH4t-cleU-99" target="a-tByQr6x83hH4t-cleU-28" edge="1">
          <mxGeometry relative="1" as="geometry" />
        </mxCell>
        <mxCell id="a-tByQr6x83hH4t-cleU-99" value="SVC" style="rounded=1;whiteSpace=wrap;html=1;rotation=0;" parent="1" vertex="1">
          <mxGeometry x="554.9977029522126" y="381.55380837080594" width="118.16792074490259" height="33.7876167416119" as="geometry" />
        </mxCell>
        <mxCell id="a-tByQr6x83hH4t-cleU-110" style="edgeStyle=orthogonalEdgeStyle;rounded=0;orthogonalLoop=1;jettySize=auto;html=1;exitX=0.5;exitY=1;exitDx=0;exitDy=0;" parent="1" source="a-tByQr6x83hH4t-cleU-100" edge="1">
          <mxGeometry relative="1" as="geometry">
            <mxPoint x="210.00000000000045" y="500" as="targetPoint" />
          </mxGeometry>
        </mxCell>
        <mxCell id="a-tByQr6x83hH4t-cleU-113" style="edgeStyle=orthogonalEdgeStyle;rounded=0;orthogonalLoop=1;jettySize=auto;html=1;exitX=0.25;exitY=1;exitDx=0;exitDy=0;" parent="1" source="a-tByQr6x83hH4t-cleU-100" edge="1">
          <mxGeometry relative="1" as="geometry">
            <mxPoint x="1040.0000000000005" y="500" as="targetPoint" />
          </mxGeometry>
        </mxCell>
        <mxCell id="a-tByQr6x83hH4t-cleU-100" value="SVC" style="rounded=1;whiteSpace=wrap;html=1;rotation=0;" parent="1" vertex="1">
          <mxGeometry x="749.9977029522126" y="381.55380837080594" width="118.16792074490259" height="33.7876167416119" as="geometry" />
        </mxCell>
        <mxCell id="8La9OSW8fpzCkvyKs-b4-1" value="Control plane" style="text;html=1;strokeColor=none;fillColor=none;align=center;verticalAlign=middle;whiteSpace=wrap;rounded=0;" vertex="1" parent="1">
          <mxGeometry x="135.00000000000003" y="143.11" width="128.01524747364448" height="16.89380837080595" as="geometry" />
        </mxCell>
        <mxCell id="8La9OSW8fpzCkvyKs-b4-2" value="METAL LB" style="rounded=1;whiteSpace=wrap;html=1;rotation=0;" vertex="1" parent="1">
          <mxGeometry x="161.83" y="173.10999999999999" width="103.17" height="33.79" as="geometry" />
        </mxCell>
        <mxCell id="8La9OSW8fpzCkvyKs-b4-3" value="METAL LB" style="rounded=1;whiteSpace=wrap;html=1;rotation=0;" vertex="1" parent="1">
          <mxGeometry x="105.00000000000001" y="590" width="103.17" height="33.79" as="geometry" />
        </mxCell>
        <mxCell id="8La9OSW8fpzCkvyKs-b4-4" value="METAL LB" style="rounded=1;whiteSpace=wrap;html=1;rotation=0;" vertex="1" parent="1">
          <mxGeometry x="1086.19" y="556.21" width="103.17" height="33.79" as="geometry" />
        </mxCell>
      </root>
    </mxGraphModel>
  </diagram>
</mxfile>
